<svg width="218" height="219" viewBox="0 0 218 219" fill="none" xmlns="http://www.w3.org/2000/svg">
<circle cx="107.638" cy="110.084" r="68.3196" fill="#253af20d" fill-opacity="0.5"/>
<circle cx="43.6005" cy="63.953" r="4.28214" fill="#253af20d" fill-opacity="0.5"/>
<circle cx="154.353" cy="47.0194" r="7.98036" fill="#253af20d" fill-opacity="0.5"/>
<circle cx="44.9641" cy="154.073" r="7.59107" fill="#253af20d" fill-opacity="0.5"/>
<circle cx="180.825" cy="146.677" r="7.59107" fill="#253af20d" fill-opacity="0.5"/>
<circle cx="166.032" cy="155.241" r="3.69821" fill="#253af20d" fill-opacity="0.5"/>
<path d="M119.04 52.4837C118.814 52.4357 118.814 52.1136 119.04 52.0656L122.452 51.3399C122.534 51.3224 122.599 51.2583 122.616 51.1762L123.351 47.7878C123.4 47.5633 123.72 47.5633 123.769 47.7878L124.504 51.1762C124.521 51.2583 124.586 51.3224 124.668 51.3399L128.08 52.0656C128.306 52.1136 128.306 52.4357 128.08 52.4837L124.668 53.2093C124.586 53.2268 124.521 53.2909 124.504 53.3731L123.769 56.7614C123.72 56.9859 123.4 56.9859 123.351 56.7614L122.616 53.3731C122.599 53.2909 122.534 53.2268 122.452 53.2093L119.04 52.4837Z" fill="#272756"/>
<path d="M35.9023 112.856C35.9894 112.444 36.5769 112.444 36.664 112.856L37.9653 119.004C37.997 119.154 38.1136 119.271 38.2633 119.303L44.3476 120.629C44.7562 120.718 44.7562 121.301 44.3476 121.39L38.2633 122.715C38.1136 122.748 37.997 122.865 37.9653 123.015L36.664 129.163C36.5769 129.574 35.9894 129.574 35.9023 129.163L34.601 123.015C34.5693 122.865 34.4526 122.748 34.303 122.715L28.2187 121.39C27.8101 121.301 27.8101 120.718 28.2187 120.629L34.303 119.303C34.4526 119.271 34.5693 119.154 34.601 119.004L35.9023 112.856Z" fill="#272756"/>
<path d="M168.697 65.7524C168.784 65.3408 169.371 65.3408 169.458 65.7524L170.218 69.3389C170.249 69.4887 170.366 69.606 170.516 69.6386L174.075 70.4141C174.484 70.5031 174.484 71.0858 174.075 71.1748L170.516 71.9503C170.366 71.9829 170.249 72.1002 170.218 72.25L169.458 75.8365C169.371 76.2481 168.784 76.2481 168.697 75.8365L167.938 72.25C167.906 72.1002 167.789 71.9829 167.64 71.9503L164.08 71.1748C163.671 71.0858 163.671 70.5031 164.08 70.4141L167.64 69.6386C167.789 69.606 167.906 69.4887 167.938 69.3389L168.697 65.7524Z" fill="#272756"/>
<path d="M184.39 123.254L185.582 128.886L191.134 130.095L185.582 131.305L184.39 136.937L183.198 131.305L177.646 130.095L183.198 128.886L184.39 123.254Z" fill="white"/>
<path d="M67.3545 139.75V85.2087C67.3545 65.3753 72.3128 60.417 92.1462 60.417H126.854C146.688 60.417 151.646 65.3753 151.646 85.2087V134.792C151.646 135.486 151.646 136.18 151.597 136.874" stroke="#272756" stroke-width="1.5" stroke-linecap="round" stroke-linejoin="round"/>
<path d="M81.4857 124.875H151.646V142.229C151.646 151.799 143.862 159.583 134.292 159.583H84.7087C75.1391 159.583 67.3545 151.799 67.3545 142.229V139.006C67.3545 131.222 73.7012 124.875 81.4857 124.875Z" stroke="#272756" stroke-width="1.5" stroke-linecap="round" stroke-linejoin="round"/>
<path d="M89.667 85.208H129.334" stroke="#272756" stroke-width="1.5" stroke-linecap="round" stroke-linejoin="round"/>
<path d="M89.667 102.562H114.459" stroke="#272756" stroke-width="1.5" stroke-linecap="round" stroke-linejoin="round"/>
</svg>
