<svg width="56" height="56" viewBox="0 0 56 56" fill="none" xmlns="http://www.w3.org/2000/svg">
<rect x="4" y="4" width="48" height="48" rx="24" fill="#FEE4E2"/>
<rect x="4" y="4" width="48" height="48" rx="24" stroke="#FEF3F2" stroke-width="8"/>
<path d="M23.5 18C22.7044 18 21.9413 18.3161 21.3787 18.8787C20.8161 19.4413 20.5 20.2044 20.5 21V35C20.5 35.7957 20.8161 36.5587 21.3787 37.1213C21.9413 37.6839 22.7043 38 23.5 38H33.5C34.2957 38 35.0587 37.6839 35.6213 37.1213C36.1839 36.5587 36.5 35.7957 36.5 35V34C36.5 33.4477 36.0523 33 35.5 33C34.9477 33 34.5 33.4477 34.5 34V35C34.5 35.2652 34.3946 35.5196 34.2071 35.7071C34.0196 35.8946 33.7652 36 33.5 36H23.5C23.2348 36 22.9804 35.8946 22.7929 35.7071C22.6054 35.5196 22.5 35.2652 22.5 35V21C22.5 20.7348 22.6054 20.4804 22.7929 20.2929C22.9804 20.1054 23.2348 20 23.5 20H33.5C33.7652 20 34.0196 20.1054 34.2071 20.2929C34.3946 20.4804 34.5 20.7348 34.5 21V22C34.5 22.5523 34.9477 23 35.5 23C36.0523 23 36.5 22.5523 36.5 22V21C36.5 20.2043 36.1839 19.4413 35.6213 18.8787C35.0587 18.3161 34.2956 18 33.5 18H23.5Z" fill="#D92D20"/>
<path d="M33.2071 24.2929C32.8166 23.9024 32.1834 23.9024 31.7929 24.2929C31.4024 24.6834 31.4024 25.3166 31.7929 25.7071L33.0858 27H28.5C27.9477 27 27.5 27.4477 27.5 28C27.5 28.5523 27.9477 29 28.5 29H33.0858L31.7929 30.2929C31.4024 30.6834 31.4024 31.3166 31.7929 31.7071C32.1834 32.0976 32.8166 32.0976 33.2071 31.7071L36.2071 28.7071C36.5976 28.3166 36.5976 27.6834 36.2071 27.2929L33.2071 24.2929Z" fill="#D92D20"/>
</svg>