<svg width="32" height="32" viewBox="0 0 32 32" fill="none" xmlns="http://www.w3.org/2000/svg">
<rect width="32" height="32" rx="10" fill="#F1F2F4"/>
<path d="M15.1398 20.3933L18.8598 16.6667C18.984 16.5418 19.0537 16.3728 19.0537 16.1967C19.0537 16.0205 18.984 15.8516 18.8598 15.7267L15.1398 12C15.0466 11.906 14.9275 11.8419 14.7976 11.8158C14.6678 11.7898 14.5332 11.803 14.4109 11.8538C14.2886 11.9045 14.1842 11.9906 14.111 12.1009C14.0378 12.2113 13.9991 12.3409 13.9998 12.4733V19.92C13.9991 20.0524 14.0378 20.1821 14.111 20.2924C14.1842 20.4028 14.2886 20.4888 14.4109 20.5396C14.5332 20.5904 14.6678 20.6036 14.7976 20.5775C14.9275 20.5515 15.0466 20.4874 15.1398 20.3933Z" fill="#727A90"/>
</svg>
