<svg width="32" height="32" viewBox="0 0 32 32" fill="none" xmlns="http://www.w3.org/2000/svg">
<rect width="32" height="32" rx="10" fill="#F1F2F4"/>
<path d="M16.8602 20.3933L13.1402 16.6667C13.016 16.5418 12.9463 16.3728 12.9463 16.1967C12.9463 16.0205 13.016 15.8516 13.1402 15.7267L16.8602 12C16.9534 11.906 17.0725 11.8419 17.2024 11.8158C17.3322 11.7898 17.4668 11.803 17.5891 11.8538C17.7114 11.9045 17.8158 11.9906 17.889 12.1009C17.9622 12.2113 18.0009 12.3409 18.0002 12.4733V19.92C18.0009 20.0524 17.9622 20.1821 17.889 20.2924C17.8158 20.4028 17.7114 20.4888 17.5891 20.5396C17.4668 20.5904 17.3322 20.6036 17.2024 20.5775C17.0725 20.5515 16.9534 20.4874 16.8602 20.3933Z" fill="#727A90"/>
</svg>
