<svg width="18" height="14" viewBox="0 0 18 14" fill="none" xmlns="http://www.w3.org/2000/svg">
<path d="M4.05 13.3C1.81406 13.3 0 11.4859 0 9.24995C0 7.4837 1.13062 5.98183 2.70562 5.42776C2.70281 5.35183 2.7 5.27589 2.7 5.19995C2.7 2.7137 4.71375 0.699951 7.2 0.699951C8.86781 0.699951 10.3219 1.60558 11.1009 2.95558C11.5284 2.6687 12.0459 2.49995 12.6 2.49995C14.0906 2.49995 15.3 3.70933 15.3 5.19995C15.3 5.54308 15.2353 5.86933 15.12 6.17308C16.7625 6.50495 18 7.95901 18 9.69995C18 11.6884 16.3884 13.3 14.4 13.3H4.05ZM6.27187 8.60308L8.52187 10.8531C8.78625 11.1175 9.21375 11.1175 9.47531 10.8531L11.7253 8.60308C11.9897 8.3387 11.9897 7.9112 11.7253 7.64964C11.4609 7.38808 11.0334 7.38526 10.7719 7.64964L9.675 8.74651V4.97495C9.675 4.60089 9.37406 4.29995 9 4.29995C8.62594 4.29995 8.325 4.60089 8.325 4.97495V8.74651L7.22812 7.64964C6.96375 7.38526 6.53625 7.38526 6.27469 7.64964C6.01312 7.91401 6.01031 8.34151 6.27469 8.60308H6.27187Z" fill="#0F9523"/>
</svg>
